<?xml version="1.0" encoding="UTF-8" standalone="no"?>
<svg
   width="100%"
   height="100%"
   viewBox="0 0 128 128"
   version="1.1"
   xml:space="preserve"
   style="fill-rule:evenodd;clip-rule:evenodd;stroke-linecap:round;stroke-linejoin:round;"
   id="svg65"
   sodipodi:docname="com.github.malothebault.latitude.svg"
   inkscape:version="1.1.1 (3bf5ae0d25, 2021-09-20)"
   xmlns:inkscape="http://www.inkscape.org/namespaces/inkscape"
   xmlns:sodipodi="http://sodipodi.sourceforge.net/DTD/sodipodi-0.dtd"
   xmlns="http://www.w3.org/2000/svg"
   xmlns:svg="http://www.w3.org/2000/svg"><sodipodi:namedview
   id="namedview67"
   pagecolor="#ffffff"
   bordercolor="#666666"
   borderopacity="1.0"
   inkscape:pageshadow="2"
   inkscape:pageopacity="0.0"
   inkscape:pagecheckerboard="true"
   showgrid="true"
   inkscape:snap-global="true"
   inkscape:snap-bbox="true"
   inkscape:snap-bbox-edge-midpoints="false"
   inkscape:snap-bbox-midpoints="false"
   inkscape:zoom="2.8433965"
   inkscape:cx="83.878559"
   inkscape:cy="70.865953"
   inkscape:window-width="1600"
   inkscape:window-height="839"
   inkscape:window-x="0"
   inkscape:window-y="30"
   inkscape:window-maximized="1"
   inkscape:current-layer="svg65"
   showguides="true"
   inkscape:guide-bbox="true"
   inkscape:object-paths="false"
   inkscape:snap-intersection-paths="true"
   inkscape:snap-midpoints="true"
   inkscape:snap-page="true"
   inkscape:snap-grids="true"
   inkscape:lockguides="true"><sodipodi:guide
     position="64.003517,64.000913"
     orientation="0,-1"
     id="guide861"
     inkscape:locked="true" /><sodipodi:guide
     position="64.003517,64.000913"
     orientation="1,0"
     id="guide863"
     inkscape:locked="true" /><sodipodi:guide
     position="0,128"
     orientation="0,128"
     id="guide909"
     inkscape:locked="true" /><sodipodi:guide
     position="128,128"
     orientation="128,0"
     id="guide911"
     inkscape:locked="true" /><sodipodi:guide
     position="128,0"
     orientation="0,-128"
     id="guide913"
     inkscape:locked="true" /><sodipodi:guide
     position="0,0"
     orientation="-128,0"
     id="guide915"
     inkscape:locked="true" /><inkscape:grid
     type="xygrid"
     id="grid917" /><sodipodi:guide
     position="64,64"
     orientation="0,-1"
     id="guide1643"
     inkscape:locked="true" /><sodipodi:guide
     position="64,64"
     orientation="1,0"
     id="guide1645"
     inkscape:locked="true" /><sodipodi:guide
     position="65,73"
     orientation="1,0"
     id="guide695"
     inkscape:locked="true" /><sodipodi:guide
     position="65,73"
     orientation="0,-1"
     id="guide697"
     inkscape:locked="true" /></sodipodi:namedview>
    <path
   id="path3041"
   d="M119,118C118.995,121.291 94.169,123.999 64,123.999C33.831,123.999 9.005,121.291 9,118C9,118 9,117.999 9,117.999C9,114.707 33.828,111.999 64,111.999C94.172,111.999 119,114.707 119,117.999C119,117.999 119,118 119,118Z"
   style="fill:url(#_Radial1);fill-rule:nonzero;" />
    <g
   id="g3712"
   transform="matrix(2.84211,0,0,0.714286,-4.21053,87.4286)">
        <g
   opacity="0.4"
   id="g8">
            <rect
   id="rect2801"
   x="38"
   y="40"
   width="5"
   height="7"
   style="fill:url(#_Radial2);" />
            <g
   id="rect3696"
   transform="matrix(-1,-0,-0,-1,0,0)">
                <rect
   x="-10"
   y="-47"
   width="5"
   height="7"
   style="fill:url(#_Radial3);"
   id="rect4" />
            </g>
            <rect
   id="rect3700"
   x="10"
   y="40"
   width="28"
   height="7"
   style="fill:url(#_Linear4);" />
        </g>
    </g>
    
    
    
    
    
    
    
    <defs
   id="defs63">
        <radialGradient
   id="_Radial1"
   cx="0"
   cy="0"
   r="1"
   gradientUnits="userSpaceOnUse"
   gradientTransform="matrix(55,0,0,6,64,118)"><stop
     offset="0%"
     style="stop-color:black;stop-opacity:0.2"
     id="stop18" /><stop
     offset="100%"
     style="stop-color:black;stop-opacity:0"
     id="stop20" /></radialGradient>
        <radialGradient
   id="_Radial2"
   cx="0"
   cy="0"
   r="1"
   gradientUnits="userSpaceOnUse"
   gradientTransform="matrix(5.00946,0,0,3.5,37.993,43.5)"><stop
     offset="0%"
     style="stop-color:rgb(24,24,24);stop-opacity:1"
     id="stop23" /><stop
     offset="100%"
     style="stop-color:rgb(24,24,24);stop-opacity:0"
     id="stop25" /></radialGradient>
        <radialGradient
   id="_Radial3"
   cx="0"
   cy="0"
   r="1"
   gradientUnits="userSpaceOnUse"
   gradientTransform="matrix(5.00946,0,0,3.5,-10.007,-43.5)"><stop
     offset="0%"
     style="stop-color:rgb(24,24,24);stop-opacity:1"
     id="stop28" /><stop
     offset="100%"
     style="stop-color:rgb(24,24,24);stop-opacity:0"
     id="stop30" /></radialGradient>
        <linearGradient
   id="_Linear4"
   x1="0"
   y1="0"
   x2="1"
   y2="0"
   gradientUnits="userSpaceOnUse"
   gradientTransform="matrix(4.30358e-16,-7.02829,7.02829,4.30358e-16,25.0581,47.0277)"><stop
     offset="0%"
     style="stop-color:rgb(24,24,24);stop-opacity:0"
     id="stop33" /><stop
     offset="50%"
     style="stop-color:rgb(24,24,24);stop-opacity:1"
     id="stop35" /><stop
     offset="100%"
     style="stop-color:rgb(24,24,24);stop-opacity:0"
     id="stop37" /></linearGradient>
        <radialGradient
   id="_Radial5"
   cx="0"
   cy="0"
   r="1"
   gradientUnits="userSpaceOnUse"
   gradientTransform="matrix(0,317.852,-390.221,0,66.1949,-39.2709)"><stop
     offset="0%"
     style="stop-color:rgb(104,87,84);stop-opacity:1"
     id="stop40" /><stop
     offset="26%"
     style="stop-color:rgb(104,87,84);stop-opacity:1"
     id="stop42" /><stop
     offset="70%"
     style="stop-color:rgb(89,76,74);stop-opacity:1"
     id="stop44" /><stop
     offset="100%"
     style="stop-color:rgb(89,76,74);stop-opacity:1"
     id="stop46" /></radialGradient>
        <linearGradient
   id="_Linear6"
   x1="0"
   y1="0"
   x2="1"
   y2="0"
   gradientUnits="userSpaceOnUse"
   gradientTransform="matrix(6.35162e-15,103.73,-103.73,6.35162e-15,64,15.1351)"><stop
     offset="0%"
     style="stop-color:white;stop-opacity:0.3"
     id="stop49" /><stop
     offset="6%"
     style="stop-color:white;stop-opacity:0.0705882"
     id="stop51" /><stop
     offset="95%"
     style="stop-color:white;stop-opacity:0.0470588"
     id="stop53" /><stop
     offset="100%"
     style="stop-color:white;stop-opacity:0.117647"
     id="stop55" /></linearGradient>
        <linearGradient
   id="_Linear7"
   x1="0"
   y1="0"
   x2="1"
   y2="0"
   gradientUnits="userSpaceOnUse"
   gradientTransform="matrix(6.84861e-16,-11.1846,11.1846,6.84861e-16,75.213,77.7963)"><stop
     offset="0%"
     style="stop-color:black;stop-opacity:0.05"
     id="stop58" /><stop
     offset="100%"
     style="stop-color:black;stop-opacity:0"
     id="stop60" /></linearGradient>
    </defs>
<rect
   style="fill:#11002b;stroke:#0000aa;stroke-width:2;stroke-linecap:round;stroke-linejoin:round"
   id="rect207"
   width="15"
   height="35"
   x="6.6421356"
   y="42.781746"
   rx="1.5"
   transform="rotate(-45)" /><rect
   style="clip-rule:evenodd;fill:#11002b;fill-rule:evenodd;stroke:#0000aa;stroke-width:2;stroke-linecap:round;stroke-linejoin:round"
   id="rect207-3"
   width="15"
   height="35"
   x="6.034483"
   y="119.91379"
   rx="1.5"
   transform="rotate(-43.602819)" /><path
   id="rect601"
   style="fill:#373748;stroke:#1c1c24;stroke-width:2;stroke-linecap:round;stroke-linejoin:round"
   d="M 66.464844 72.083984 C 66.081415 72.083984 65.6981 72.231588 65.404297 72.525391 L 51.648438 86.28125 A 5 5 0 0 0 45.921875 88.107422 L 50 91 L 45.894531 88.146484 A 5 5 0 0 0 47.136719 95.099609 A 5 5 0 0 0 54.091797 93.873047 A 5 5 0 0 0 54.914062 90.085938 L 68.939453 76.060547 C 69.527059 75.472941 69.527059 74.527059 68.939453 73.939453 L 67.525391 72.525391 C 67.231588 72.231588 66.848272 72.083984 66.464844 72.083984 z " /><path
   id="path183"
   style="fill:#6f6f91;stroke:#9393ac;stroke-width:2;stroke-linecap:round;stroke-linejoin:round"
   d="M 84.697266 45.316406 C 84.313837 45.316406 83.930522 45.46401 83.636719 45.757812 L 72.771484 56.621094 A 20 20 0 0 0 66.306641 55.042969 A 20 20 0 0 0 45.914062 69.021484 L 65 75 L 72.992188 93.333984 A 20 20 0 0 0 84.701172 71.560547 A 20 20 0 0 0 83.384766 67.222656 L 94.242188 56.363281 C 94.829793 55.775676 94.829793 54.829793 94.242188 54.242188 L 85.757812 45.757812 C 85.46401 45.46401 85.080694 45.316406 84.697266 45.316406 z " /></svg>
